<?xml version="1.0" encoding="UTF-8" standalone="no"?>
<!-- Created with Inkscape (http://www.inkscape.org/) -->

<svg
   width="156.5mm"
   height="110mm"
   viewBox="0 0 156.5 110"
   version="1.1"
   id="svg278"
   inkscape:version="1.1.2 (0a00cf5339, 2022-02-04)"
   sodipodi:docname="pad.svg"
   xmlns:inkscape="http://www.inkscape.org/namespaces/inkscape"
   xmlns:sodipodi="http://sodipodi.sourceforge.net/DTD/sodipodi-0.dtd"
   xmlns="http://www.w3.org/2000/svg"
   xmlns:svg="http://www.w3.org/2000/svg">
  <sodipodi:namedview
     id="namedview280"
     pagecolor="#ffffff"
     bordercolor="#666666"
     borderopacity="1.0"
     inkscape:pageshadow="2"
     inkscape:pageopacity="0.0"
     inkscape:pagecheckerboard="0"
     inkscape:document-units="mm"
     showgrid="false"
     inkscape:zoom="0.71891835"
     inkscape:cx="105.01888"
     inkscape:cy="561.25984"
     inkscape:window-width="1846"
     inkscape:window-height="1016"
     inkscape:window-x="0"
     inkscape:window-y="0"
     inkscape:window-maximized="1"
     inkscape:current-layer="g65489" />
  <defs
     id="defs275" />
  <g
     id="g65604"
     transform="translate(-21.030887,-58.56417)">
    <g
       id="g2640">
      <ellipse
         style="fill:#ffffff;fill-opacity:1;fill-rule:evenodd;stroke:#000000;stroke-width:1.5;stroke-miterlimit:4;stroke-dasharray:none;stroke-opacity:1"
         id="path411"
         cx="52.8633"
         cy="136.32841"
         rx="30.232349"
         ry="30.38905" />
      <ellipse
         style="fill:#ffffff;fill-opacity:1;fill-rule:evenodd;stroke:#000000;stroke-width:1.5;stroke-miterlimit:4;stroke-dasharray:none;stroke-opacity:1"
         id="path411-2"
         cx="145.64777"
         cy="136.26732"
         rx="30.232349"
         ry="30.38905" />
      <rect
         style="fill:#ffffff;fill-opacity:1;stroke:#000000;stroke-width:1.49139;stroke-miterlimit:4;stroke-dasharray:none;stroke-opacity:1"
         id="rect2152"
         width="92.816811"
         height="60.666122"
         x="52.935902"
         y="105.92197" />
      <rect
         style="fill:#ffffff;fill-opacity:1;stroke:none;stroke-width:1.49692;stroke-miterlimit:4;stroke-dasharray:none;stroke-opacity:1"
         id="rect2152-3"
         width="95.826851"
         height="59.197506"
         x="52.037716"
         y="106.61858" />
      <rect
         style="fill:#ffffff;fill-opacity:1;stroke:#000000;stroke-width:1.57272;stroke-miterlimit:4;stroke-dasharray:none;stroke-opacity:1"
         id="rect2328"
         width="36.664764"
         height="15.323802"
         x="35.947918"
         y="84.324684" />
      <rect
         style="fill:#ffffff;fill-opacity:1;stroke:#000000;stroke-width:1.57777;stroke-miterlimit:4;stroke-dasharray:none;stroke-opacity:1"
         id="rect2328-9"
         width="36.90078"
         height="15.323802"
         x="35.82835"
         y="61.185539" />
      <rect
         style="fill:#ffffff;fill-opacity:1;stroke:#000000;stroke-width:1.57387;stroke-miterlimit:4;stroke-dasharray:none;stroke-opacity:1"
         id="rect2328-1"
         width="36.416161"
         height="15.451071"
         x="125.7196"
         y="84.298027" />
      <rect
         style="fill:#ffffff;fill-opacity:1;stroke:#000000;stroke-width:1.57176;stroke-miterlimit:4;stroke-dasharray:none;stroke-opacity:1"
         id="rect2328-1-4"
         width="36.306179"
         height="15.456293"
         x="125.64999"
         y="61.119293" />
    </g>
    <g
       id="g3074">
      <ellipse
         style="fill:#ffffff;fill-opacity:1;fill-rule:evenodd;stroke:#000000;stroke-width:1.5;stroke-miterlimit:4;stroke-dasharray:none;stroke-opacity:1"
         id="path411-6"
         cx="145.01019"
         cy="152.92642"
         rx="7.6948824"
         ry="7.5475268" />
      <ellipse
         style="fill:#ffffff;fill-opacity:1;fill-rule:evenodd;stroke:#000000;stroke-width:1.5;stroke-miterlimit:4;stroke-dasharray:none;stroke-opacity:1"
         id="path411-6-0"
         cx="162.63896"
         cy="136.33777"
         rx="7.6948824"
         ry="7.5475268" />
      <ellipse
         style="fill:#ffffff;fill-opacity:1;fill-rule:evenodd;stroke:#000000;stroke-width:1.5;stroke-miterlimit:4;stroke-dasharray:none;stroke-opacity:1"
         id="path411-6-06"
         cx="126.14362"
         cy="136.10344"
         rx="7.6948824"
         ry="7.5475268" />
      <ellipse
         style="fill:#ffffff;fill-opacity:1;fill-rule:evenodd;stroke:#000000;stroke-width:1.5;stroke-miterlimit:4;stroke-dasharray:none;stroke-opacity:1"
         id="path411-6-06-5"
         cx="144.40567"
         cy="119.46592"
         rx="7.6948824"
         ry="7.5475268" />
      <rect
         style="fill:#ffffff;fill-opacity:1;stroke:#000000;stroke-width:1.5;stroke-miterlimit:4;stroke-dasharray:none;stroke-opacity:1"
         id="rect2915"
         width="14.30428"
         height="14.636371"
         x="47.875488"
         y="113.53645" />
      <rect
         style="fill:#ffffff;fill-opacity:1;stroke:#000000;stroke-width:1.5;stroke-miterlimit:4;stroke-dasharray:none;stroke-opacity:1"
         id="rect2915-4-39"
         width="14.30428"
         height="14.636371"
         x="62.179771"
         y="128.17282" />
      <rect
         style="fill:#ffffff;fill-opacity:1;stroke:#000000;stroke-width:1.5;stroke-miterlimit:4;stroke-dasharray:none;stroke-opacity:1"
         id="rect2915-4"
         width="14.30428"
         height="14.636371"
         x="33.571213"
         y="128.17282" />
      <rect
         style="fill:#ffffff;fill-opacity:1;stroke:#000000;stroke-width:1.5;stroke-miterlimit:4;stroke-dasharray:none;stroke-opacity:1"
         id="rect2915-4-3"
         width="14.30428"
         height="14.636371"
         x="47.875492"
         y="142.80919" />
    </g>
    <g
       id="g65489">
      <g
         aria-label="C
"
         id="text12889"
         style="font-size:10.5833px;line-height:1.25;stroke-width:0.264583">
        <path
           d="m 43.698142,131.94465 v 1.10071 q -0.527098,-0.49093 -1.126543,-0.7338 -0.594277,-0.24288 -1.266069,-0.24288 -1.322912,0 -2.025709,0.81131 -0.702797,0.80615 -0.702797,2.33577 0,1.52445 0.702797,2.33577 0.702797,0.80615 2.025709,0.80615 0.671792,0 1.266069,-0.24288 0.599445,-0.24288 1.126543,-0.7338 v 1.09037 q -0.547769,0.37207 -1.162716,0.5581 -0.60978,0.18603 -1.291907,0.18603 -1.751826,0 -2.759513,-1.06969 -1.007687,-1.07487 -1.007687,-2.93005 0,-1.86034 1.007687,-2.93004 1.007687,-1.07487 2.759513,-1.07487 0.692462,0 1.302242,0.18604 0.614947,0.18086 1.152381,0.54776 z"
           id="path65976" />
      </g>
      <g
         aria-label="D
"
         id="text12889-1"
         style="font-size:10.5833px;line-height:1.25;stroke-width:0.264583">
        <path
           d="m 52.786823,118.16018 v 5.99961 h 1.260901 q 1.596797,0 2.335767,-0.72347 0.744138,-0.72347 0.744138,-2.28409 0,-1.55029 -0.744138,-2.26859 -0.73897,-0.72346 -2.335767,-0.72346 z m -1.043861,-0.85783 h 2.144566 q 2.24275,0 3.291778,0.93534 1.049028,0.93017 1.049028,2.91454 0,1.99471 -1.054196,2.93005 -1.054196,0.93534 -3.28661,0.93534 h -2.144566 z"
           id="path65955" />
      </g>
      <g
         aria-label="E
"
         id="text12889-1-1"
         style="font-size:10.5833px;line-height:1.25;stroke-width:0.264583">
        <path
           d="m 66.803731,131.68226 h 4.878239 v 0.87849 h -3.834379 v 2.28409 h 3.674183 v 0.8785 h -3.674183 v 2.79569 h 3.927396 v 0.87849 h -4.971256 z"
           id="path65934" />
      </g>
      <g
         aria-label="F
"
         id="text12889-1-2"
         style="font-size:10.5833px;line-height:1.25;stroke-width:0.264583">
        <path
           d="m 52.988236,146.03542 h 4.433824 v 0.8785 h -3.389963 v 2.27375 h 3.059235 v 0.8785 h -3.059235 v 3.68452 h -1.043861 z"
           id="path65913" />
      </g>
      <g
         aria-label="G
"
         id="text12889-1-24"
         style="font-size:10.5833px;line-height:1.25;stroke-width:0.264583">
        <path
           d="m 128.38154,138.91356 v -2.07222 h -1.70531 v -0.85782 h 2.73884 v 3.31245 q -0.60461,0.42891 -1.33325,0.65112 -0.72863,0.21704 -1.55545,0.21704 -1.80867,0 -2.83186,-1.0542 -1.01803,-1.05936 -1.01803,-2.94554 0,-1.89136 1.01803,-2.94555 1.02319,-1.05937 2.83186,-1.05937 0.75447,0 1.43143,0.18604 0.68213,0.18603 1.25573,0.54777 v 1.11104 q -0.57877,-0.49093 -1.22989,-0.73897 -0.65112,-0.24805 -1.36942,-0.24805 -1.41593,0 -2.12907,0.79065 -0.70796,0.79064 -0.70796,2.35644 0,1.56062 0.70796,2.35127 0.71314,0.79064 2.12907,0.79064 0.55293,0 0.98701,-0.093 0.43408,-0.0982 0.78031,-0.29972 z"
           id="path65892" />
      </g>
      <g
         aria-label="A
"
         id="text12889-1-25"
         style="font-size:10.5833px;line-height:1.25;stroke-width:0.264583">
        <path
           d="m 144.40867,116.06015 -1.41592,3.83955 h 2.83702 z m -0.5891,-1.02835 h 1.18338 l 2.94038,7.71526 h -1.0852 l -0.7028,-1.9792 h -3.47781 l -0.7028,1.9792 h -1.1007 z"
           id="path65871" />
      </g>
      <g
         aria-label="C 
"
         id="text12889-1-6"
         style="font-size:10.5833px;line-height:1.25;stroke-width:0.264583">
        <path
           d="m 147.675,149.3741 v 1.1007 q -0.5271,-0.49092 -1.12654,-0.7338 -0.59428,-0.24288 -1.26607,-0.24288 -1.32291,0 -2.02571,0.81132 -0.7028,0.80615 -0.7028,2.33576 0,1.52445 0.7028,2.33577 0.7028,0.80615 2.02571,0.80615 0.67179,0 1.26607,-0.24288 0.59944,-0.24288 1.12654,-0.7338 v 1.09037 q -0.54777,0.37207 -1.16271,0.5581 -0.60978,0.18604 -1.29191,0.18604 -1.75183,0 -2.75951,-1.0697 -1.00769,-1.07487 -1.00769,-2.93005 0,-1.86034 1.00769,-2.93004 1.00768,-1.07487 2.75951,-1.07487 0.69246,0 1.30224,0.18604 0.61495,0.18087 1.15238,0.54777 z"
           id="path65850" />
      </g>
      <g
         aria-label="B
"
         id="text12889-1-0"
         style="font-size:10.5833px;line-height:1.25;stroke-width:0.264583">
        <path
           d="m 161.1503,136.18885 v 2.82669 h 1.67431 q 0.84233,0 1.2454,-0.34623 0.40824,-0.3514 0.40824,-1.0697 0,-0.72347 -0.40824,-1.06453 -0.40307,-0.34623 -1.2454,-0.34623 z m 0,-3.17292 v 2.32543 h 1.54512 q 0.76481,0 1.13688,-0.28422 0.37724,-0.28939 0.37724,-0.8785 0,-0.58394 -0.37724,-0.87333 -0.37207,-0.28938 -1.13688,-0.28938 z m -1.04386,-0.85783 h 2.6665 q 1.19372,0 1.83967,0.49609 0.64596,0.49609 0.64596,1.41076 0,0.70797 -0.33073,1.12655 -0.33073,0.41858 -0.97152,0.52193 0.76998,0.16536 1.19373,0.69246 0.42891,0.52193 0.42891,1.30741 0,1.03352 -0.7028,1.5968 -0.7028,0.56327 -1.99987,0.56327 h -2.76985 z"
           id="path65829" />
      </g>
      <g
         aria-label="♭
"
         transform="scale(1.0230067,0.9775107)"
         id="text12889-1-69"
         style="font-size:12.8989px;line-height:1.25;stroke-width:0.322473">
        <path
           d="m 51.618092,89.208086 h 0.283423 l 0.03149,0.03779 v 6.052658 h 0.0189 q 1.07071,-1.492695 1.983962,-1.492695 1.429712,0.0189 1.555678,1.637556 -0.182651,2.676773 -3.892344,3.231023 l -0.01889,-0.0189 v -9.409647 z m 0.314914,6.764364 v 2.235893 q 2.632686,-0.62353 2.632686,-2.544509 0.0063,-0.08188 0.0063,-0.157457 0,-0.932148 -0.938445,-0.982534 -0.749497,0 -1.700539,1.448607 z"
           id="path65808" />
      </g>
      <g
         aria-label="⇩
"
         transform="scale(1.1903802,0.84006772)"
         id="text12889-1-69-3"
         style="font-size:14.8135px;line-height:1.25;stroke-width:0.370341">
        <path
           d="m 48.093597,84.205331 h -0.947543 v -7.493548 h -1.952952 v 7.493548 h -0.947543 l 1.924019,1.924019 z m -5.598461,-0.723315 h 1.974651 v -7.493549 h 3.399582 v 7.493549 h 1.974652 l -3.674443,3.674442 z"
           id="path65787" />
      </g>
      <g
         aria-label="♯
"
         transform="scale(1.0151966,0.98503089)"
         id="text12889-1-69-4"
         style="font-size:15.4542px;line-height:1.25;stroke-width:0.386357">
        <path
           d="m 143.12425,87.772515 h 0.34711 l 0.0377,0.03773 v 2.293982 l 0.89798,-0.452759 0.0226,0.01509 v 1.063985 q -0.0226,0.05282 -0.92062,0.505582 v 2.814656 l 0.92062,-0.41503 v 1.01871 q -0.008,0.03018 -0.92062,0.535766 v 2.24116 l -0.0377,0.03018 h -0.34711 l -0.0377,-0.03018 v -2.060056 l -2.17325,1.056439 v 2.610915 l -0.0377,0.03018 h -0.31693 l -0.0377,-0.03018 V 96.61642 l -0.97343,0.45276 v -1.07153 q 0,-0.04528 0.97343,-0.498036 v -2.859932 h -0.0151 l -0.95834,0.422576 v -1.048894 l 0.97343,-0.490489 v -2.165701 l 0.0377,-0.03018 h 0.31693 l 0.0377,0.03018 v 1.977051 l 2.17325,-1.011164 v -2.512816 z m -2.21098,4.701155 v 2.844841 l 2.17325,-1.048894 v -2.80711 z"
           id="path65766" />
      </g>
      <g
         aria-label="⇧
"
         transform="scale(1.230032,0.81298699)"
         id="text12889-1-69-7"
         style="font-size:15.3798px;line-height:1.25;stroke-width:0.384494">
        <path
           d="m 119.27019,81.84993 -1.99757,-1.997572 -1.99757,1.997572 h 0.98376 v 7.780016 h 2.02761 V 81.84993 Z m -5.81248,0.750967 3.81491,-3.814911 3.81491,3.814911 h -2.05014 v 7.780016 h -3.52954 v -7.780016 z"
           id="path65745" />
      </g>
    </g>
  </g>
</svg>
